<?xml version="1.0" standalone="no"?>
<!DOCTYPE svg PUBLIC "-//W3C//DTD SVG 20010904//EN"
 "http://www.w3.org/TR/2001/REC-SVG-20010904/DTD/svg10.dtd">
<svg version="1.0" xmlns="http://www.w3.org/2000/svg"
 width="455.000000pt" height="511.000000pt" viewBox="0 0 455.000000 511.000000"
 preserveAspectRatio="xMidYMid meet">

<g transform="translate(0.000000,511.000000) scale(0.100000,-0.100000)"
fill="#000000" stroke="none">
<path d="M2225 5013 c-33 -20 -141 -82 -240 -138 -99 -56 -261 -148 -360 -205
-99 -57 -247 -141 -330 -188 -82 -47 -163 -93 -180 -102 -16 -10 -93 -53 -170
-97 -77 -44 -194 -111 -260 -148 -66 -38 -221 -126 -344 -197 -123 -70 -227
-128 -231 -128 -10 0 -20 -856 -20 -1740 l1 -795 112 -64 c62 -36 170 -99 242
-141 136 -81 223 -131 470 -275 229 -134 673 -394 735 -431 30 -18 89 -51 130
-75 41 -23 120 -69 175 -102 55 -33 116 -69 135 -80 19 -10 65 -37 102 -58 36
-22 72 -39 78 -39 7 0 64 30 129 66 64 37 195 112 291 167 96 55 256 146 355
202 347 196 520 295 535 304 8 5 94 54 190 109 186 105 465 264 515 292 17 10
62 36 100 58 l70 40 6 278 c4 154 7 723 8 1266 l1 988 -42 21 c-23 12 -54 30
-68 39 -14 10 -97 59 -185 110 -88 51 -203 118 -255 148 -52 30 -108 63 -125
72 -16 10 -55 32 -85 50 -72 43 -396 232 -485 283 -38 22 -86 50 -105 62 -19
12 -96 57 -170 100 -74 43 -160 93 -190 110 -30 18 -93 55 -140 82 -47 28
-140 82 -206 122 -67 39 -123 71 -125 70 -2 0 -31 -17 -64 -36z m103 -129 c13
-9 103 -62 200 -118 97 -57 299 -174 447 -261 149 -87 349 -204 445 -260 96
-56 294 -172 440 -257 146 -86 315 -184 375 -220 l110 -64 -4 -1185 c-2 -651
-5 -1187 -7 -1191 -3 -4 -188 -111 -412 -239 -224 -127 -436 -248 -472 -269
-36 -21 -261 -149 -500 -285 -239 -136 -460 -261 -490 -279 -30 -18 -85 -50
-122 -70 l-68 -38 -127 75 c-71 40 -249 145 -398 232 -148 87 -349 204 -445
260 -96 56 -296 173 -445 260 -148 87 -355 208 -459 268 l-189 110 6 165 c4
91 7 625 7 1186 l0 1022 363 206 c199 114 490 279 647 368 157 89 314 179 350
200 83 49 647 369 680 387 32 17 41 16 68 -3z"/>
<path d="M1648 3618 l-3 -523 -522 -3 -523 -2 0 -565 0 -565 370 0 370 0 303
232 c577 442 1024 784 1135 868 l72 55 0 512 0 513 -600 0 -600 0 -2 -522z"/>
<path d="M2896 3082 c5 -5 56 -45 114 -88 58 -44 143 -109 190 -145 47 -36
202 -155 345 -264 143 -109 277 -212 297 -229 21 -16 40 -27 42 -25 2 2 6 174
10 382 l6 377 -507 0 c-279 0 -503 -4 -497 -8z"/>
<path d="M2754 2947 c-51 -40 -219 -169 -374 -287 -155 -118 -308 -235 -340
-260 -32 -25 -137 -106 -235 -180 -98 -74 -203 -155 -235 -180 -31 -25 -68
-53 -81 -62 -23 -16 -20 -17 79 -17 l102 -1 0 -565 0 -565 620 0 620 0 0 565
0 565 490 0 490 0 0 134 0 133 -172 132 c-188 142 -378 287 -473 361 -155 120
-394 300 -397 300 -1 -1 -44 -33 -94 -73z m-70 -371 c27 -8 56 -22 65 -30 17
-15 22 -14 67 11 64 36 157 39 220 6 180 -95 179 -352 -3 -438 -76 -36 -169
-29 -235 17 -27 19 -27 19 -67 -8 -54 -36 -151 -44 -217 -19 -212 81 -217 373
-8 455 59 23 115 25 178 6z"/>
<path d="M2872 2535 c-24 -7 -52 -21 -62 -30 -18 -16 -18 -18 3 -58 29 -56 29
-149 -2 -207 -18 -34 -20 -45 -9 -52 105 -71 228 -52 295 45 24 35 28 50 28
112 0 63 -4 77 -29 113 -48 70 -145 103 -224 77z"/>
<path d="M2525 2526 c-60 -26 -115 -113 -115 -181 0 -66 51 -150 109 -180 55
-28 96 -29 155 -2 31 14 56 30 56 35 0 5 -7 23 -16 40 -24 50 -29 130 -9 182
30 81 30 77 -14 99 -46 24 -120 27 -166 7z"/>
<path d="M2746 2418 c-19 -43 -20 -88 -5 -140 12 -47 22 -48 40 -5 18 42 16
114 -4 152 l-16 30 -15 -37z"/>
</g>
</svg>
